<svg id="c632b1a0-d778-43d2-ab22-ad9abbbedac9" data-name="Camada" xmlns="http://www.w3.org/2000/svg" viewBox="0 0 89 89"><defs><style>.\36 2d914ea-5618-4cbd-b6ca-6355dd0f0f5a{fill:#25d366;}.eba3f922-dbf6-42fc-aed2-0d2c1c14bb95{fill:#fff;fill-rule:evenodd;}</style></defs><title>whatsapp-round</title><rect class="62d914ea-5618-4cbd-b6ca-6355dd0f0f5a" width="89" height="89" rx="44.5" ry="44.5"/><g id="7667f45d-d452-4928-b528-e2ae5ca5e8c4" data-name="WA Logo"><path class="eba3f922-dbf6-42fc-aed2-0d2c1c14bb95" d="M62.13,26.76a24.78,24.78,0,0,0-39,29.9L19.62,69.5l13.13-3.44a24.8,24.8,0,0,0,11.84,3h0A24.79,24.79,0,0,0,62.13,26.76ZM44.6,64.89h0A20.65,20.65,0,0,1,34.11,62l-.75-.45-7.79,2L27.65,56l-.49-.78A20.59,20.59,0,1,1,44.6,64.89ZM55.9,49.46c-.62-.31-3.66-1.8-4.23-2s-1-.31-1.39.31-1.6,2-2,2.43-.73.46-1.34.15a16.78,16.78,0,0,1-5-3.07A18.68,18.68,0,0,1,38.55,43a.9.9,0,0,1,.27-1.26c.28-.28.62-.73.93-1.09a4.34,4.34,0,0,0,.62-1,1.15,1.15,0,0,0,0-1.09c-.16-.31-1.39-3.35-1.91-4.59s-1-1.05-1.39-1.07-.78,0-1.19,0a2.29,2.29,0,0,0-1.65.78A6.91,6.91,0,0,0,32,38.77c0,3,2.22,6,2.53,6.41s4.37,6.66,10.58,9.35c1.48.63,2.63,1,3.53,1.3a8.64,8.64,0,0,0,3.9.25c1.19-.18,3.66-1.5,4.18-2.95a5.26,5.26,0,0,0,.36-2.94C56.93,49.93,56.52,49.77,55.9,49.46Z"/></g></svg>